<svg width="38" height="40" viewBox="0 0 38 40" fill="none" xmlns="http://www.w3.org/2000/svg">
<path d="M21.3565 37.7214L20.5189 26.2125C22.7054 28.6515 24.6747 29.8029 26.9135 30.4226C28.8713 30.9645 31.0351 31.0999 33.7305 31.3341L21.3565 37.7214Z" fill="#A8B6E6"/>
<path d="M15.8321 2.48197L17.6875 13.922C15.2929 11.619 13.2289 10.5884 10.9435 10.1049C8.9451 9.68214 6.77741 9.67774 4.07142 9.60673L15.8321 2.48197Z" fill="#A8B6E6"/>
<path d="M26.9135 30.4226C28.8713 30.9645 31.0351 31.0999 33.7305 31.3341L21.3565 37.7214L20.5189 26.2125C22.7054 28.6515 24.6747 29.8029 26.9135 30.4226ZM26.9135 30.4226C28.6659 28.7705 32.7715 24.3834 35.1751 20.052C37.5787 15.7207 36.9791 11.9795 36.3789 10.6503C34.498 7.28961 29.2707 1.18421 23.4082 3.64839M10.9435 10.1049C8.9451 9.68213 6.77742 9.67774 4.07142 9.60673L15.8321 2.48197L17.6875 13.922C15.2929 11.619 13.2289 10.5884 10.9435 10.1049ZM10.9435 10.1049C9.34434 11.8603 5.64338 16.4884 3.63309 20.9581C1.62281 25.4279 2.55196 29.1269 3.26782 30.4177C5.43971 33.6594 11.1889 39.4393 16.8107 36.6248" stroke="black" stroke-width="2"/>
</svg>
